<svg width="36" height="31" viewBox="0 0 36 31" fill="none" xmlns="http://www.w3.org/2000/svg">
<path d="M22.406 0.653128L35.3648 13.934C35.5661 14.1396 35.7259 14.384 35.8349 14.653C35.9439 14.9221 36 15.2105 36 15.5018C36 15.7932 35.9439 16.0816 35.8349 16.3507C35.7259 16.6197 35.5661 16.8641 35.3648 17.0697L22.406 30.3506C22.0003 30.7664 21.45 31 20.8762 31C20.3024 31 19.7521 30.7664 19.3463 30.3506C18.9406 29.9347 18.7126 29.3708 18.7126 28.7827C18.7126 28.1946 18.9406 27.6306 19.3463 27.2148L28.6172 17.7135L2.15979 17.7135C1.58698 17.7135 1.03763 17.4803 0.632588 17.0652C0.227549 16.6501 2.20024e-07 16.0871 2.28686e-07 15.5C2.37347e-07 14.913 0.227549 14.3499 0.632588 13.9348C1.03763 13.5197 1.58698 13.2865 2.15979 13.2865L28.6172 13.2865L19.3445 3.78519C18.9388 3.36937 18.7108 2.80539 18.7108 2.21732C18.7108 1.62925 18.9388 1.06527 19.3445 0.649441C19.7503 0.233614 20.3006 -1.71169e-06 20.8744 -1.70616e-06C21.4482 -1.70062e-06 21.9985 0.233614 22.4042 0.649441L22.406 0.653128Z" fill="#D9DEE1"/>
</svg>
