<svg width="108" height="103" viewBox="0 0 108 103" fill="none" xmlns="http://www.w3.org/2000/svg">
<path d="M54 0C61.0914 0 68.1133 1.33209 74.6649 3.9202C81.2165 6.50832 87.1694 10.3018 92.1838 15.084C97.1981 19.8662 101.176 25.5435 103.89 31.7918C106.603 38.0401 108 44.7369 108 51.5C108 65.1587 102.311 78.2579 92.1838 87.916C82.0568 97.5741 68.3217 103 54 103C46.9086 103 39.8867 101.668 33.3351 99.0798C26.7835 96.4917 20.8306 92.6982 15.8162 87.916C5.68927 78.2579 0 65.1587 0 51.5C0 37.8414 5.68927 24.7421 15.8162 15.084C25.9432 5.42588 39.6783 0 54 0ZM54 10.3C50.4196 10.3 46.9858 11.6565 44.4541 14.071C41.9223 16.4855 40.5 19.7603 40.5 23.175C40.5 26.5897 41.9223 29.8645 44.4541 32.279C46.9858 34.6935 50.4196 36.05 54 36.05C57.5804 36.05 61.0142 34.6935 63.5459 32.279C66.0777 29.8645 67.5 26.5897 67.5 23.175C67.5 19.7603 66.0777 16.4855 63.5459 14.071C61.0142 11.6565 57.5804 10.3 54 10.3ZM12.96 38.7795C11.8527 42.0235 12.1406 45.554 13.7606 48.5956C15.3806 51.6373 18.2001 53.9414 21.6 55.002C28.728 57.165 36.342 53.5085 38.61 46.7105C39.7173 43.4665 39.4294 39.936 37.8094 36.8944C36.1894 33.8527 33.3699 31.5486 29.97 30.488C22.896 28.325 15.228 31.9815 12.96 38.7795ZM95.094 38.625C92.772 31.9815 85.158 28.325 78.084 30.488C76.3915 31.002 74.8226 31.8307 73.4679 32.9262C72.1132 34.0218 70.9995 35.3624 70.1911 36.8708C69.3828 38.3792 68.8958 40.0253 68.7582 41.7142C68.6207 43.4031 68.8355 45.1012 69.39 46.7105C70.5021 49.953 72.9181 52.642 76.1074 54.187C79.2967 55.7319 82.9986 56.0065 86.4 54.9505C93.474 52.7875 97.362 45.4745 95.094 38.625ZM28.674 84.769C34.668 88.992 43.2 87.7045 47.52 81.9365C51.894 76.1685 50.544 68.1345 44.496 63.963C41.5993 61.9656 37.9916 61.1423 34.4606 61.673C30.9296 62.2037 27.7622 64.0453 25.65 66.7955C21.276 72.5635 22.626 80.5975 28.674 84.769ZM79.38 84.769C85.428 80.5975 86.778 72.5635 82.404 66.7955C81.3654 65.4248 80.0527 64.2635 78.5415 63.3786C77.0304 62.4937 75.3507 61.9026 73.599 61.6393C71.8473 61.376 70.0584 61.4458 68.3351 61.8446C66.6119 62.2434 64.9883 62.9634 63.558 63.963C62.1206 64.9528 60.902 66.2031 59.9719 67.6426C59.0418 69.082 58.4185 70.6822 58.1376 72.3517C57.8567 74.0211 57.9238 75.727 58.335 77.3717C58.7462 79.0163 59.4935 80.5676 60.534 81.9365C64.8 87.7045 73.386 88.9405 79.38 84.769ZM54 43.775C51.8517 43.775 49.7915 44.5889 48.2724 46.0376C46.7534 47.4863 45.9 49.4512 45.9 51.5C45.9 53.5488 46.7534 55.5137 48.2724 56.9624C49.7915 58.4111 51.8517 59.225 54 59.225C56.1483 59.225 58.2085 58.4111 59.7276 56.9624C61.2466 55.5137 62.1 53.5488 62.1 51.5C62.1 49.4512 61.2466 47.4863 59.7276 46.0376C58.2085 44.5889 56.1483 43.775 54 43.775Z" fill="#D9DEE1"/>
</svg>
