<svg width="25" height="25" viewBox="0 0 25 25" fill="none" xmlns="http://www.w3.org/2000/svg">
<mask id="path-1-inside-1_3391_798" fill="white">
<path d="M16.749 7.6709L25 9.54883L19.375 16.168L20.2256 25L12.5 21.4209L4.77441 25L5.625 16.168L0 9.54883L8.25098 7.6709L12.5 0L16.749 7.6709Z"/>
</mask>
<path d="M16.749 7.6709L14.9995 8.63999L15.4329 9.4225L16.3052 9.62103L16.749 7.6709ZM25 9.54883L26.524 10.844L28.6598 8.33066L25.4439 7.5987L25 9.54883ZM19.375 16.168L17.851 14.8728L17.3031 15.5175L17.3842 16.3597L19.375 16.168ZM20.2256 25L19.3849 26.8147L22.5509 28.2815L22.2164 24.8083L20.2256 25ZM12.5 21.4209L13.3407 19.6062L12.5 19.2167L11.6593 19.6062L12.5 21.4209ZM4.77441 25L2.78363 24.8083L2.44913 28.2815L5.61513 26.8147L4.77441 25ZM5.625 16.168L7.61579 16.3597L7.69689 15.5175L7.14902 14.8728L5.625 16.168ZM0 9.54883L-0.443851 7.5987L-3.65984 8.33066L-1.52402 10.844L0 9.54883ZM8.25098 7.6709L8.69483 9.62103L9.56706 9.4225L10.0005 8.63999L8.25098 7.6709ZM12.5 0L14.2495 -0.969091L12.5 -4.12758L10.7505 -0.969091L12.5 0ZM16.749 7.6709L16.3052 9.62103L24.5561 11.499L25 9.54883L25.4439 7.5987L17.1929 5.72077L16.749 7.6709ZM25 9.54883L23.476 8.2537L17.851 14.8728L19.375 16.168L20.899 17.4631L26.524 10.844L25 9.54883ZM19.375 16.168L17.3842 16.3597L18.2348 25.1917L20.2256 25L22.2164 24.8083L21.3658 15.9762L19.375 16.168ZM20.2256 25L21.0663 23.1853L13.3407 19.6062L12.5 21.4209L11.6593 23.2356L19.3849 26.8147L20.2256 25ZM12.5 21.4209L11.6593 19.6062L3.93369 23.1853L4.77441 25L5.61513 26.8147L13.3407 23.2356L12.5 21.4209ZM4.77441 25L6.7652 25.1917L7.61579 16.3597L5.625 16.168L3.63421 15.9762L2.78363 24.8083L4.77441 25ZM5.625 16.168L7.14902 14.8728L1.52402 8.2537L0 9.54883L-1.52402 10.844L4.10098 17.4631L5.625 16.168ZM0 9.54883L0.443851 11.499L8.69483 9.62103L8.25098 7.6709L7.80713 5.72077L-0.443851 7.5987L0 9.54883ZM8.25098 7.6709L10.0005 8.63999L14.2495 0.969091L12.5 0L10.7505 -0.969091L6.50144 6.70181L8.25098 7.6709ZM12.5 0L10.7505 0.969091L14.9995 8.63999L16.749 7.6709L18.4986 6.70181L14.2495 -0.969091L12.5 0Z" fill="#FFCB45" mask="url(#path-1-inside-1_3391_798)"/>
</svg>
